<svg xmlns="http://www.w3.org/2000/svg" xmlns:xlink="http://www.w3.org/1999/xlink" width="665" zoomAndPan="magnify" viewBox="0 0 498.75 513.000007" height="684" preserveAspectRatio="xMidYMid meet" version="1.0"><defs><clipPath id="5d407cd1ae"><path d="M 99.78125 105.949219 L 399.199219 105.949219 L 399.199219 405.363281 L 99.78125 405.363281 Z M 99.78125 105.949219 " clip-rule="nonzero"/></clipPath><clipPath id="bf4c21c40a"><path d="M 137.957031 105.949219 L 361.09375 105.949219 C 371.21875 105.949219 380.925781 109.96875 388.085938 117.128906 C 395.246094 124.289062 399.269531 134 399.269531 144.125 L 399.269531 367.257812 C 399.269531 377.382812 395.246094 387.09375 388.085938 394.253906 C 380.925781 401.414062 371.21875 405.433594 361.09375 405.433594 L 137.957031 405.433594 C 127.832031 405.433594 118.121094 401.414062 110.960938 394.253906 C 103.804688 387.09375 99.78125 377.382812 99.78125 367.257812 L 99.78125 144.125 C 99.78125 134 103.804688 124.289062 110.960938 117.128906 C 118.121094 109.96875 127.832031 105.949219 137.957031 105.949219 Z M 137.957031 105.949219 " clip-rule="nonzero"/></clipPath><clipPath id="3baa211511"><path d="M 174.824219 180.992188 L 324.535156 180.992188 L 324.535156 330.699219 L 174.824219 330.699219 Z M 174.824219 180.992188 " clip-rule="nonzero"/></clipPath><clipPath id="2df91f6e19"><path d="M 213 180.992188 L 286.042969 180.992188 C 296.167969 180.992188 305.878906 185.015625 313.039062 192.171875 C 320.195312 199.332031 324.21875 209.042969 324.21875 219.167969 L 324.21875 292.210938 C 324.21875 302.335938 320.195312 312.046875 313.039062 319.203125 C 305.878906 326.363281 296.167969 330.386719 286.042969 330.386719 L 213 330.386719 C 202.875 330.386719 193.164062 326.363281 186.007812 319.203125 C 178.847656 312.046875 174.824219 302.335938 174.824219 292.210938 L 174.824219 219.167969 C 174.824219 209.042969 178.847656 199.332031 186.007812 192.171875 C 193.164062 185.015625 202.875 180.992188 213 180.992188 Z M 213 180.992188 " clip-rule="nonzero"/></clipPath><clipPath id="9a161aa155"><path d="M 0.359375 231.539062 L 49.261719 231.539062 L 49.261719 280.4375 L 0.359375 280.4375 Z M 0.359375 231.539062 " clip-rule="nonzero"/></clipPath><clipPath id="6de56c5983"><path d="M 24.808594 231.539062 C 11.308594 231.539062 0.359375 242.484375 0.359375 255.988281 C 0.359375 269.492188 11.308594 280.4375 24.808594 280.4375 C 38.3125 280.4375 49.261719 269.492188 49.261719 255.988281 C 49.261719 242.484375 38.3125 231.539062 24.808594 231.539062 Z M 24.808594 231.539062 " clip-rule="nonzero"/></clipPath><clipPath id="2d0daf7324"><path d="M 0.359375 231.539062 L 49.015625 231.539062 L 49.015625 280.191406 L 0.359375 280.191406 Z M 0.359375 231.539062 " clip-rule="nonzero"/></clipPath><clipPath id="1c54266618"><path d="M 24.804688 231.539062 C 11.304688 231.539062 0.359375 242.480469 0.359375 255.980469 C 0.359375 269.484375 11.304688 280.425781 24.804688 280.425781 C 38.304688 280.425781 49.25 269.484375 49.25 255.980469 C 49.25 242.480469 38.304688 231.539062 24.804688 231.539062 Z M 24.804688 231.539062 " clip-rule="nonzero"/></clipPath><clipPath id="75c69a54d0"><path d="M 449.785156 231.539062 L 498.097656 231.539062 L 498.097656 279.847656 L 449.785156 279.847656 Z M 449.785156 231.539062 " clip-rule="nonzero"/></clipPath><clipPath id="305d3fdee5"><path d="M 473.941406 231.539062 C 460.601562 231.539062 449.785156 242.351562 449.785156 255.691406 C 449.785156 269.035156 460.601562 279.847656 473.941406 279.847656 C 487.28125 279.847656 498.097656 269.035156 498.097656 255.691406 C 498.097656 242.351562 487.28125 231.539062 473.941406 231.539062 Z M 473.941406 231.539062 " clip-rule="nonzero"/></clipPath><clipPath id="d1860bd002"><path d="M 449.785156 231.539062 L 498.089844 231.539062 L 498.089844 279.84375 L 449.785156 279.84375 Z M 449.785156 231.539062 " clip-rule="nonzero"/></clipPath><clipPath id="a0fbd663aa"><path d="M 473.9375 231.539062 C 460.601562 231.539062 449.785156 242.351562 449.785156 255.691406 C 449.785156 269.027344 460.601562 279.84375 473.9375 279.84375 C 487.277344 279.84375 498.089844 269.027344 498.089844 255.691406 C 498.089844 242.351562 487.277344 231.539062 473.9375 231.539062 Z M 473.9375 231.539062 " clip-rule="nonzero"/></clipPath><clipPath id="acecdd39e1"><path d="M 225.371094 0 L 273.679688 0 L 273.679688 48.308594 L 225.371094 48.308594 Z M 225.371094 0 " clip-rule="nonzero"/></clipPath><clipPath id="3960e27bb1"><path d="M 249.527344 0 C 236.183594 0 225.371094 10.816406 225.371094 24.15625 C 225.371094 37.496094 236.183594 48.308594 249.527344 48.308594 C 262.867188 48.308594 273.679688 37.496094 273.679688 24.15625 C 273.679688 10.816406 262.867188 0 249.527344 0 Z M 249.527344 0 " clip-rule="nonzero"/></clipPath><clipPath id="b87a9950c9"><path d="M 225.371094 0 L 273.675781 0 L 273.675781 48.304688 L 225.371094 48.304688 Z M 225.371094 0 " clip-rule="nonzero"/></clipPath><clipPath id="c825946a56"><path d="M 249.523438 0 C 236.183594 0 225.371094 10.8125 225.371094 24.152344 C 225.371094 37.492188 236.183594 48.304688 249.523438 48.304688 C 262.863281 48.304688 273.675781 37.492188 273.675781 24.152344 C 273.675781 10.8125 262.863281 0 249.523438 0 Z M 249.523438 0 " clip-rule="nonzero"/></clipPath><clipPath id="5554a55cd2"><path d="M 225.371094 463.074219 L 273.679688 463.074219 L 273.679688 511.386719 L 225.371094 511.386719 Z M 225.371094 463.074219 " clip-rule="nonzero"/></clipPath><clipPath id="59a7c47030"><path d="M 249.527344 463.074219 C 236.183594 463.074219 225.371094 473.890625 225.371094 487.230469 C 225.371094 500.570312 236.183594 511.386719 249.527344 511.386719 C 262.867188 511.386719 273.679688 500.570312 273.679688 487.230469 C 273.679688 473.890625 262.867188 463.074219 249.527344 463.074219 Z M 249.527344 463.074219 " clip-rule="nonzero"/></clipPath><clipPath id="4289abe5a6"><path d="M 225.371094 463.074219 L 273.675781 463.074219 L 273.675781 511.378906 L 225.371094 511.378906 Z M 225.371094 463.074219 " clip-rule="nonzero"/></clipPath><clipPath id="d199b8f3cd"><path d="M 249.523438 463.074219 C 236.183594 463.074219 225.371094 473.890625 225.371094 487.226562 C 225.371094 500.566406 236.183594 511.378906 249.523438 511.378906 C 262.863281 511.378906 273.675781 500.566406 273.675781 487.226562 C 273.675781 473.890625 262.863281 463.074219 249.523438 463.074219 Z M 249.523438 463.074219 " clip-rule="nonzero"/></clipPath></defs><g clip-path="url(#5d407cd1ae)"><g clip-path="url(#bf4c21c40a)"><path stroke-linecap="butt" transform="matrix(0.748541, 0, 0, 0.748541, 99.781101, 105.948109)" fill="none" stroke-linejoin="miter" d="M 51.000465 0.00148269 L 349.096051 0.00148269 C 362.622367 0.00148269 375.590305 5.371305 385.15579 14.93679 C 394.721275 24.502275 400.096316 37.475432 400.096316 51.001748 L 400.096316 349.092115 C 400.096316 362.618432 394.721275 375.591588 385.15579 385.157073 C 375.590305 394.722559 362.622367 400.092381 349.096051 400.092381 L 51.000465 400.092381 C 37.474149 400.092381 24.500992 394.722559 14.935507 385.157073 C 5.37524 375.591588 0.000199527 362.618432 0.000199527 349.092115 L 0.000199527 51.001748 C 0.000199527 37.475432 5.37524 24.502275 14.935507 14.93679 C 24.500992 5.371305 37.474149 0.00148269 51.000465 0.00148269 Z M 51.000465 0.00148269 " stroke="#ffffff" stroke-width="48" stroke-opacity="1" stroke-miterlimit="4"/></g></g><g clip-path="url(#3baa211511)"><g clip-path="url(#2df91f6e19)"><path stroke-linecap="butt" transform="matrix(0.748541, 0, 0, 0.748541, 174.825989, 180.992983)" fill="none" stroke-linejoin="miter" d="M 50.9979 -0.00106258 L 148.578373 -0.00106258 C 162.10469 -0.00106258 175.077846 5.373978 184.643331 14.934245 C 194.203598 24.49973 199.578639 37.472887 199.578639 50.999203 L 199.578639 148.579676 C 199.578639 162.105992 194.203598 175.079149 184.643331 184.639415 C 175.077846 194.2049 162.10469 199.579941 148.578373 199.579941 L 50.9979 199.579941 C 37.471584 199.579941 24.498428 194.2049 14.938161 184.639415 C 5.372676 175.079149 -0.00236494 162.105992 -0.00236494 148.579676 L -0.00236494 50.999203 C -0.00236494 37.472887 5.372676 24.49973 14.938161 14.934245 C 24.498428 5.373978 37.471584 -0.00106258 50.9979 -0.00106258 Z M 50.9979 -0.00106258 " stroke="#ffffff" stroke-width="48" stroke-opacity="1" stroke-miterlimit="4"/></g></g><path stroke-linecap="butt" transform="matrix(0.748541, 0, 0, 0.748541, 24.810165, 246.710482)" fill="none" stroke-linejoin="miter" d="M -0.00209877 11.997908 L 200.408644 11.997908 " stroke="#e82a2a" stroke-width="24" stroke-opacity="1" stroke-miterlimit="4"/><g clip-path="url(#9a161aa155)"><g clip-path="url(#6de56c5983)"><path fill="#e82a2a" d="M 0.359375 231.539062 L 49.261719 231.539062 L 49.261719 280.4375 L 0.359375 280.4375 Z M 0.359375 231.539062 " fill-opacity="1" fill-rule="nonzero"/></g></g><g clip-path="url(#2d0daf7324)"><g clip-path="url(#1c54266618)"><path stroke-linecap="butt" transform="matrix(0.748541, 0, 0, 0.748541, 0.360405, 231.537734)" fill="none" stroke-linejoin="miter" d="M 32.65591 0.00177414 C 14.620822 0.00177414 -0.00137623 14.618754 -0.00137623 32.653842 C -0.00137623 50.694149 14.620822 65.311129 32.65591 65.311129 C 50.690998 65.311129 65.313197 50.694149 65.313197 32.653842 C 65.313197 14.618754 50.690998 0.00177414 32.65591 0.00177414 Z M 32.65591 0.00177414 " stroke="#000000" stroke-width="200" stroke-opacity="1" stroke-miterlimit="4"/></g></g><path stroke-linecap="butt" transform="matrix(0.748541, -0.0000000000103973, 0.0000000000103973, 0.748541, 324.225925, 246.710482)" fill="none" stroke-linejoin="miter" d="M 0.000851834 11.997908 L 200.009772 11.997908 " stroke="#ffbd59" stroke-width="24" stroke-opacity="1" stroke-miterlimit="4"/><path stroke-linecap="butt" transform="matrix(0, -0.748541, 0.748541, 0, 240.54191, 180.991419)" fill="none" stroke-linejoin="miter" d="M -0.00102702 11.998714 L 199.611288 11.998714 " stroke="#7ed957" stroke-width="24" stroke-opacity="1" stroke-miterlimit="4"/><path stroke-linecap="butt" transform="matrix(0, -0.748541, 0.748541, 0, 240.538856, 479.801617)" fill="none" stroke-linejoin="miter" d="M 0.00111614 11.997576 L 199.608212 11.997576 " stroke="#004aad" stroke-width="24" stroke-opacity="1" stroke-miterlimit="4"/><g clip-path="url(#75c69a54d0)"><g clip-path="url(#305d3fdee5)"><path fill="#ffbd59" d="M 449.785156 231.539062 L 498.097656 231.539062 L 498.097656 279.847656 L 449.785156 279.847656 Z M 449.785156 231.539062 " fill-opacity="1" fill-rule="nonzero"/></g></g><g clip-path="url(#d1860bd002)"><g clip-path="url(#a0fbd663aa)"><path stroke-linecap="butt" transform="matrix(0.748541, 0, 0, 0.748541, 449.786335, 231.537734)" fill="none" stroke-linejoin="miter" d="M 32.264326 0.00177414 C 14.448414 0.00177414 -0.00157421 14.446544 -0.00157421 32.267674 C -0.00157421 50.083586 14.448414 64.533574 32.264326 64.533574 C 50.085456 64.533574 64.530226 50.083586 64.530226 32.267674 C 64.530226 14.446544 50.085456 0.00177414 32.264326 0.00177414 Z M 32.264326 0.00177414 " stroke="#000000" stroke-width="200" stroke-opacity="1" stroke-miterlimit="4"/></g></g><g clip-path="url(#acecdd39e1)"><g clip-path="url(#3960e27bb1)"><path fill="#7ed957" d="M 225.371094 0 L 273.679688 0 L 273.679688 48.308594 L 225.371094 48.308594 Z M 225.371094 0 " fill-opacity="1" fill-rule="nonzero"/></g></g><g clip-path="url(#b87a9950c9)"><g clip-path="url(#c825946a56)"><path stroke-linecap="butt" transform="matrix(0.748541, 0, 0, 0.748541, 225.370757, 0.0000199611)" fill="none" stroke-linejoin="miter" d="M 32.266349 -0.0000266667 C 14.445219 -0.0000266667 0.000449376 14.444743 0.000449376 32.265873 C 0.000449376 50.087004 14.445219 64.531773 32.266349 64.531773 C 50.08748 64.531773 64.532249 50.087004 64.532249 32.265873 C 64.532249 14.444743 50.08748 -0.0000266667 32.266349 -0.0000266667 Z M 32.266349 -0.0000266667 " stroke="#000000" stroke-width="200" stroke-opacity="1" stroke-miterlimit="4"/></g></g><g clip-path="url(#5554a55cd2)"><g clip-path="url(#59a7c47030)"><path fill="#004aad" d="M 225.371094 463.074219 L 273.679688 463.074219 L 273.679688 511.386719 L 225.371094 511.386719 Z M 225.371094 463.074219 " fill-opacity="1" fill-rule="nonzero"/></g></g><g clip-path="url(#4289abe5a6)"><g clip-path="url(#d199b8f3cd)"><path stroke-linecap="butt" transform="matrix(0.748541, 0, 0, 0.748541, 225.370757, 463.075454)" fill="none" stroke-linejoin="miter" d="M 32.266349 -0.00164995 C 14.445219 -0.00164995 0.000449376 14.448338 0.000449376 32.26425 C 0.000449376 50.08538 14.445219 64.53015 32.266349 64.53015 C 50.08748 64.53015 64.532249 50.08538 64.532249 32.26425 C 64.532249 14.448338 50.08748 -0.00164995 32.266349 -0.00164995 Z M 32.266349 -0.00164995 " stroke="#000000" stroke-width="200" stroke-opacity="1" stroke-miterlimit="4"/></g></g></svg>