<svg xmlns="http://www.w3.org/2000/svg" xmlns:xlink="http://www.w3.org/1999/xlink" width="646" zoomAndPan="magnify" viewBox="0 0 484.5 483.749986" height="645" preserveAspectRatio="xMidYMid meet" version="1.0"><defs><clipPath id="25554064c4"><path d="M 167.253906 166.78125 L 317 166.78125 L 317 316.628906 L 167.253906 316.628906 Z M 167.253906 166.78125 " clip-rule="nonzero"/></clipPath><clipPath id="1282a97625"><path d="M 205.464844 166.78125 L 278.574219 166.78125 C 288.710938 166.78125 298.429688 170.808594 305.59375 177.972656 C 312.757812 185.140625 316.785156 194.855469 316.785156 204.992188 L 316.785156 278.101562 C 316.785156 288.238281 312.757812 297.953125 305.59375 305.121094 C 298.429688 312.285156 288.710938 316.3125 278.574219 316.3125 L 205.464844 316.3125 C 195.332031 316.3125 185.613281 312.285156 178.445312 305.121094 C 171.28125 297.953125 167.253906 288.238281 167.253906 278.101562 L 167.253906 204.992188 C 167.253906 194.855469 171.28125 185.140625 178.445312 177.972656 C 185.613281 170.808594 195.332031 166.78125 205.464844 166.78125 Z M 205.464844 166.78125 " clip-rule="nonzero"/></clipPath><clipPath id="810d1196bf"><path d="M 92.140625 91.667969 L 391.832031 91.667969 L 391.832031 391.359375 L 92.140625 391.359375 Z M 92.140625 91.667969 " clip-rule="nonzero"/></clipPath><clipPath id="a4b7967bc0"><path d="M 130.351562 91.667969 L 353.691406 91.667969 C 363.828125 91.667969 373.546875 95.695312 380.710938 102.859375 C 387.875 110.027344 391.902344 119.746094 391.902344 129.878906 L 391.902344 353.21875 C 391.902344 363.351562 387.875 373.070312 380.710938 380.238281 C 373.546875 387.402344 363.828125 391.429688 353.691406 391.429688 L 130.351562 391.429688 C 120.21875 391.429688 110.5 387.402344 103.332031 380.238281 C 96.167969 373.070312 92.140625 363.351562 92.140625 353.21875 L 92.140625 129.878906 C 92.140625 119.746094 96.167969 110.027344 103.332031 102.859375 C 110.5 95.695312 120.21875 91.667969 130.351562 91.667969 Z M 130.351562 91.667969 " clip-rule="nonzero"/></clipPath><clipPath id="c4afc99939"><path d="M 0 224.449219 L 34.203125 224.449219 L 34.203125 258.652344 L 0 258.652344 Z M 0 224.449219 " clip-rule="nonzero"/></clipPath><clipPath id="3fa0a93ef8"><path d="M 17.101562 224.449219 C 7.65625 224.449219 0 232.105469 0 241.550781 C 0 250.996094 7.65625 258.652344 17.101562 258.652344 C 26.546875 258.652344 34.203125 250.996094 34.203125 241.550781 C 34.203125 232.105469 26.546875 224.449219 17.101562 224.449219 Z M 17.101562 224.449219 " clip-rule="nonzero"/></clipPath><clipPath id="66d4bd2b6d"><path d="M 449.542969 224.449219 L 483.746094 224.449219 L 483.746094 258.652344 L 449.542969 258.652344 Z M 449.542969 224.449219 " clip-rule="nonzero"/></clipPath><clipPath id="a4eb7d3df3"><path d="M 466.644531 224.449219 C 457.199219 224.449219 449.542969 232.105469 449.542969 241.550781 C 449.542969 250.996094 457.199219 258.652344 466.644531 258.652344 C 476.089844 258.652344 483.746094 250.996094 483.746094 241.550781 C 483.746094 232.105469 476.089844 224.449219 466.644531 224.449219 Z M 466.644531 224.449219 " clip-rule="nonzero"/></clipPath><clipPath id="93954216ca"><path d="M 224.921875 0.125 L 259.125 0.125 L 259.125 34.328125 L 224.921875 34.328125 Z M 224.921875 0.125 " clip-rule="nonzero"/></clipPath><clipPath id="9c23a5849d"><path d="M 242.023438 0.125 C 232.578125 0.125 224.921875 7.78125 224.921875 17.226562 C 224.921875 26.671875 232.578125 34.328125 242.023438 34.328125 C 251.46875 34.328125 259.125 26.671875 259.125 17.226562 C 259.125 7.78125 251.46875 0.125 242.023438 0.125 Z M 242.023438 0.125 " clip-rule="nonzero"/></clipPath><clipPath id="8698f37f0b"><path d="M 224.921875 448.765625 L 259.125 448.765625 L 259.125 482.972656 L 224.921875 482.972656 Z M 224.921875 448.765625 " clip-rule="nonzero"/></clipPath><clipPath id="3d45986665"><path d="M 242.023438 448.765625 C 232.578125 448.765625 224.921875 456.425781 224.921875 465.871094 C 224.921875 475.3125 232.578125 482.972656 242.023438 482.972656 C 251.46875 482.972656 259.125 475.3125 259.125 465.871094 C 259.125 456.425781 251.46875 448.765625 242.023438 448.765625 Z M 242.023438 448.765625 " clip-rule="nonzero"/></clipPath></defs><g clip-path="url(#25554064c4)"><g clip-path="url(#1282a97625)"><path stroke-linecap="butt" transform="matrix(0.749227, 0, 0, 0.749227, 167.25522, 166.782232)" fill="none" stroke-linejoin="miter" d="M 50.998743 -0.0013101 L 148.578512 -0.0013101 C 162.108085 -0.0013101 175.079792 5.374023 184.641734 14.935965 C 194.203675 24.50312 199.579008 37.469613 199.579008 50.999187 L 199.579008 148.578955 C 199.579008 162.108529 194.203675 175.075022 184.641734 184.642177 C 175.079792 194.204118 162.108085 199.579452 148.578512 199.579452 L 50.998743 199.579452 C 37.474384 199.579452 24.502677 194.204118 14.935522 184.642177 C 5.37358 175.075022 -0.00175323 162.108529 -0.00175323 148.578955 L -0.00175323 50.999187 C -0.00175323 37.469613 5.37358 24.50312 14.935522 14.935965 C 24.502677 5.374023 37.474384 -0.0013101 50.998743 -0.0013101 Z M 50.998743 -0.0013101 " stroke="#ffffff" stroke-width="12" stroke-opacity="1" stroke-miterlimit="4"/></g></g><g clip-path="url(#810d1196bf)"><g clip-path="url(#a4b7967bc0)"><path stroke-linecap="butt" transform="matrix(0.749227, 0, 0, 0.749227, 92.141556, 91.668575)" fill="none" stroke-linejoin="miter" d="M 50.999254 -0.000808588 L 349.093038 -0.000808588 C 362.622612 -0.000808588 375.594319 5.374525 385.15626 14.936466 C 394.718202 24.503621 400.093535 37.475328 400.093535 50.999688 L 400.093535 349.093472 C 400.093535 362.617832 394.718202 375.589539 385.15626 385.156694 C 375.594319 394.718635 362.622612 400.093969 349.093038 400.093969 L 50.999254 400.093969 C 37.474895 400.093969 24.503188 394.718635 14.936033 385.156694 C 5.374091 375.589539 -0.00124212 362.617832 -0.00124212 349.093472 L -0.00124212 50.999688 C -0.00124212 37.475328 5.374091 24.503621 14.936033 14.936466 C 24.503188 5.374525 37.474895 -0.000808588 50.999254 -0.000808588 Z M 50.999254 -0.000808588 " stroke="#ffffff" stroke-width="12" stroke-opacity="1" stroke-miterlimit="4"/></g></g><path stroke-linecap="butt" transform="matrix(0.749227, 0, 0, 0.749227, 17.101915, 238.553752)" fill="none" stroke-linejoin="miter" d="M -0.000470554 4.000163 L 200.409271 4.000163 " stroke="#e82a2a" stroke-width="8" stroke-opacity="1" stroke-miterlimit="4"/><g clip-path="url(#c4afc99939)"><g clip-path="url(#3fa0a93ef8)"><path fill="#e82a2a" d="M 0 224.449219 L 34.203125 224.449219 L 34.203125 258.652344 L 0 258.652344 Z M 0 224.449219 " fill-opacity="1" fill-rule="nonzero"/></g></g><path stroke-linecap="butt" transform="matrix(0.749227, 0.00000000000456996, -0.00000000000456996, 0.749227, 316.792073, 238.553752)" fill="none" stroke-linejoin="miter" d="M 0.00119586 4.000163 L 200.009482 4.000163 " stroke="#ffbd59" stroke-width="8" stroke-opacity="1" stroke-miterlimit="4"/><path stroke-linecap="butt" transform="matrix(0, -0.749227, 0.749227, 0, 239.025158, 166.780652)" fill="none" stroke-linejoin="miter" d="M -0.000798705 4.001832 L 199.611245 4.001832 " stroke="#7ed957" stroke-width="8" stroke-opacity="1" stroke-miterlimit="4"/><path stroke-linecap="butt" transform="matrix(0, -0.749227, 0.749227, 0, 239.022116, 465.864674)" fill="none" stroke-linejoin="miter" d="M 0.00185901 4.000679 L 199.603476 4.000679 " stroke="#004aad" stroke-width="8" stroke-opacity="1" stroke-miterlimit="4"/><g clip-path="url(#66d4bd2b6d)"><g clip-path="url(#a4eb7d3df3)"><path fill="#ffbd59" d="M 449.542969 224.449219 L 483.746094 224.449219 L 483.746094 258.652344 L 449.542969 258.652344 Z M 449.542969 224.449219 " fill-opacity="1" fill-rule="nonzero"/></g></g><g clip-path="url(#93954216ca)"><g clip-path="url(#9c23a5849d)"><path fill="#7ed957" d="M 224.921875 0.125 L 259.125 0.125 L 259.125 34.328125 L 224.921875 34.328125 Z M 224.921875 0.125 " fill-opacity="1" fill-rule="nonzero"/></g></g><g clip-path="url(#8698f37f0b)"><g clip-path="url(#3d45986665)"><path fill="#004aad" d="M 224.921875 448.765625 L 259.125 448.765625 L 259.125 482.972656 L 224.921875 482.972656 Z M 224.921875 448.765625 " fill-opacity="1" fill-rule="nonzero"/></g></g></svg>