<svg xmlns="http://www.w3.org/2000/svg" xmlns:xlink="http://www.w3.org/1999/xlink" width="701" zoomAndPan="magnify" viewBox="0 0 525.75 524.249967" height="699" preserveAspectRatio="xMidYMid meet" version="1.0"><defs><clipPath id="39d651e578"><path d="M 187.925781 186.785156 L 337.710938 186.785156 L 337.710938 336.570312 L 187.925781 336.570312 Z M 187.925781 186.785156 " clip-rule="nonzero"/></clipPath><clipPath id="b39dc5f549"><path d="M 226.121094 186.785156 L 299.203125 186.785156 C 309.332031 186.785156 319.046875 190.808594 326.210938 197.96875 C 333.371094 205.132812 337.394531 214.847656 337.394531 224.976562 L 337.394531 298.058594 C 337.394531 308.191406 333.371094 317.90625 326.210938 325.066406 C 319.046875 332.230469 309.332031 336.253906 299.203125 336.253906 L 226.121094 336.253906 C 215.992188 336.253906 206.277344 332.230469 199.113281 325.066406 C 191.949219 317.90625 187.925781 308.191406 187.925781 298.058594 L 187.925781 224.976562 C 187.925781 214.847656 191.949219 205.132812 199.113281 197.96875 C 206.277344 190.808594 215.992188 186.785156 226.121094 186.785156 Z M 226.121094 186.785156 " clip-rule="nonzero"/></clipPath><clipPath id="6ab5e10037"><path d="M 0.25 223.941406 L 75.414062 223.941406 L 75.414062 299.105469 L 0.25 299.105469 Z M 0.25 223.941406 " clip-rule="nonzero"/></clipPath><clipPath id="76b95ee802"><path d="M 37.832031 223.941406 C 17.078125 223.941406 0.25 240.765625 0.25 261.523438 C 0.25 282.277344 17.078125 299.105469 37.832031 299.105469 C 58.589844 299.105469 75.414062 282.277344 75.414062 261.523438 C 75.414062 240.765625 58.589844 223.941406 37.832031 223.941406 Z M 37.832031 223.941406 " clip-rule="nonzero"/></clipPath><clipPath id="a81aab7c5f"><path d="M 0.25 223.941406 L 75.144531 223.941406 L 75.144531 298.832031 L 0.25 298.832031 Z M 0.25 223.941406 " clip-rule="nonzero"/></clipPath><clipPath id="89d5e90366"><path d="M 37.832031 223.941406 C 17.078125 223.941406 0.25 240.765625 0.25 261.519531 C 0.25 282.277344 17.078125 299.101562 37.832031 299.101562 C 58.585938 299.101562 75.414062 282.277344 75.414062 261.519531 C 75.414062 240.765625 58.585938 223.941406 37.832031 223.941406 Z M 37.832031 223.941406 " clip-rule="nonzero"/></clipPath><clipPath id="052769fee6"><path d="M 449.582031 223.875 L 524.8125 223.875 L 524.8125 299.105469 L 449.582031 299.105469 Z M 449.582031 223.875 " clip-rule="nonzero"/></clipPath><clipPath id="f93fa912a6"><path d="M 487.195312 223.875 C 466.421875 223.875 449.582031 240.714844 449.582031 261.488281 C 449.582031 282.265625 466.421875 299.105469 487.195312 299.105469 C 507.972656 299.105469 524.8125 282.265625 524.8125 261.488281 C 524.8125 240.714844 507.972656 223.875 487.195312 223.875 Z M 487.195312 223.875 " clip-rule="nonzero"/></clipPath><clipPath id="e510b851fa"><path d="M 449.582031 223.875 L 524.472656 223.875 L 524.472656 298.765625 L 449.582031 298.765625 Z M 449.582031 223.875 " clip-rule="nonzero"/></clipPath><clipPath id="a79ad365b3"><path d="M 487.191406 223.875 C 466.421875 223.875 449.582031 240.710938 449.582031 261.484375 C 449.582031 282.253906 466.421875 299.09375 487.191406 299.09375 C 507.964844 299.09375 524.800781 282.253906 524.800781 261.484375 C 524.800781 240.710938 507.964844 223.875 487.191406 223.875 Z M 487.191406 223.875 " clip-rule="nonzero"/></clipPath><clipPath id="5e03521886"><path d="M 225.378906 0 L 299.953125 0 L 299.953125 74.574219 L 225.378906 74.574219 Z M 225.378906 0 " clip-rule="nonzero"/></clipPath><clipPath id="0f1fa9525b"><path d="M 262.664062 0 C 242.070312 0 225.378906 16.695312 225.378906 37.289062 C 225.378906 57.882812 242.070312 74.574219 262.664062 74.574219 C 283.257812 74.574219 299.953125 57.882812 299.953125 37.289062 C 299.953125 16.695312 283.257812 0 262.664062 0 Z M 262.664062 0 " clip-rule="nonzero"/></clipPath><clipPath id="0b8033fa61"><path d="M 225.378906 0 L 299.941406 0 L 299.941406 74.566406 L 225.378906 74.566406 Z M 225.378906 0 " clip-rule="nonzero"/></clipPath><clipPath id="ebee34a56f"><path d="M 262.660156 0 C 242.070312 0 225.378906 16.691406 225.378906 37.28125 C 225.378906 57.875 242.070312 74.566406 262.660156 74.566406 C 283.25 74.566406 299.941406 57.875 299.941406 37.28125 C 299.941406 16.691406 283.25 0 262.660156 0 Z M 262.660156 0 " clip-rule="nonzero"/></clipPath><clipPath id="f776b09b40"><path d="M 224.722656 448.136719 L 299.953125 448.136719 L 299.953125 523.367188 L 224.722656 523.367188 Z M 224.722656 448.136719 " clip-rule="nonzero"/></clipPath><clipPath id="28abb1cab3"><path d="M 262.335938 448.136719 C 241.5625 448.136719 224.722656 464.976562 224.722656 485.75 C 224.722656 506.527344 241.5625 523.367188 262.335938 523.367188 C 283.113281 523.367188 299.953125 506.527344 299.953125 485.75 C 299.953125 464.976562 283.113281 448.136719 262.335938 448.136719 Z M 262.335938 448.136719 " clip-rule="nonzero"/></clipPath><clipPath id="541aa50cc7"><path d="M 224.722656 448.136719 L 299.613281 448.136719 L 299.613281 523.027344 L 224.722656 523.027344 Z M 224.722656 448.136719 " clip-rule="nonzero"/></clipPath><clipPath id="f7f81254d2"><path d="M 262.332031 448.136719 C 241.558594 448.136719 224.722656 464.976562 224.722656 485.746094 C 224.722656 506.519531 241.558594 523.355469 262.332031 523.355469 C 283.101562 523.355469 299.941406 506.519531 299.941406 485.746094 C 299.941406 464.976562 283.101562 448.136719 262.332031 448.136719 Z M 262.332031 448.136719 " clip-rule="nonzero"/></clipPath><clipPath id="dc90f57b72"><path d="M 112.84375 111.699219 L 412.414062 111.699219 L 412.414062 411.273438 L 112.84375 411.273438 Z M 112.84375 111.699219 " clip-rule="nonzero"/></clipPath><clipPath id="376f628240"><path d="M 151.039062 111.699219 L 374.289062 111.699219 C 384.417969 111.699219 394.132812 115.722656 401.296875 122.886719 C 408.460938 130.050781 412.484375 139.765625 412.484375 149.894531 L 412.484375 373.148438 C 412.484375 383.277344 408.460938 392.992188 401.296875 400.15625 C 394.132812 407.316406 384.417969 411.339844 374.289062 411.339844 L 151.039062 411.339844 C 140.90625 411.339844 131.191406 407.316406 124.03125 400.15625 C 116.867188 392.992188 112.84375 383.277344 112.84375 373.148438 L 112.84375 149.894531 C 112.84375 139.765625 116.867188 130.050781 124.03125 122.886719 C 131.191406 115.722656 140.90625 111.699219 151.039062 111.699219 Z M 151.039062 111.699219 " clip-rule="nonzero"/></clipPath></defs><g clip-path="url(#39d651e578)"><g clip-path="url(#b39dc5f549)"><path stroke-linecap="butt" transform="matrix(0.748928, 0, 0, 0.748928, 187.926579, 186.783916)" fill="none" stroke-linejoin="miter" d="M 50.99888 0.00165639 L 148.581002 0.00165639 C 162.105532 0.00165639 175.07719 5.373915 184.642939 14.934449 C 194.203473 24.500199 199.575732 37.471856 199.575732 50.996386 L 199.575732 148.578508 C 199.575732 162.108254 194.203473 175.079911 184.642939 184.640445 C 175.07719 194.206195 162.105532 199.578454 148.581002 199.578454 L 50.99888 199.578454 C 37.47435 199.578454 24.502692 194.206195 14.936943 184.640445 C 5.371193 175.079911 -0.00106551 162.108254 -0.00106551 148.578508 L -0.00106551 50.996386 C -0.00106551 37.471856 5.371193 24.500199 14.936943 14.934449 C 24.502692 5.373915 37.47435 0.00165639 50.99888 0.00165639 Z M 50.99888 0.00165639 " stroke="#ffffff" stroke-width="64" stroke-opacity="1" stroke-miterlimit="4"/></g></g><path stroke-linecap="butt" transform="matrix(0.748928, 0, 0, 0.748928, 37.833067, 243.548293)" fill="none" stroke-linejoin="miter" d="M -0.0013829 24.001149 L 200.40994 24.001149 " stroke="#e82a2a" stroke-width="48" stroke-opacity="1" stroke-miterlimit="4"/><g clip-path="url(#6ab5e10037)"><g clip-path="url(#76b95ee802)"><path fill="#e82a2a" d="M 0.25 223.941406 L 75.414062 223.941406 L 75.414062 299.105469 L 0.25 299.105469 Z M 0.25 223.941406 " fill-opacity="1" fill-rule="nonzero"/></g></g><g clip-path="url(#a81aab7c5f)"><g clip-path="url(#89d5e90366)"><path stroke-linecap="butt" transform="matrix(0.748928, 0, 0, 0.748928, 0.250731, 223.940247)" fill="none" stroke-linejoin="miter" d="M 50.180092 0.00154731 C 22.468626 0.00154731 -0.000975817 22.465933 -0.000975817 50.177399 C -0.000975817 77.89408 22.468626 100.358466 50.180092 100.358466 C 77.891557 100.358466 100.361159 77.89408 100.361159 50.177399 C 100.361159 22.465933 77.891557 0.00154731 50.180092 0.00154731 Z M 50.180092 0.00154731 " stroke="#e82a2a" stroke-width="200" stroke-opacity="1" stroke-miterlimit="4"/></g></g><path stroke-linecap="butt" transform="matrix(0.748928, -0.00000000000499427, 0.00000000000499427, 0.748928, 337.403916, 243.548293)" fill="none" stroke-linejoin="miter" d="M -0.00209911 24.001149 L 200.007608 24.001149 " stroke="#ffbd59" stroke-width="48" stroke-opacity="1" stroke-miterlimit="4"/><path stroke-linecap="butt" transform="matrix(0, -0.748928, 0.748928, 0, 244.689406, 186.782351)" fill="none" stroke-linejoin="miter" d="M 0.00146979 24.000498 L 199.614778 24.000498 " stroke="#7ed957" stroke-width="48" stroke-opacity="1" stroke-miterlimit="4"/><path stroke-linecap="butt" transform="matrix(0, -0.748928, 0.748928, 0, 244.686334, 485.747308)" fill="none" stroke-linejoin="miter" d="M 0.00162085 23.999384 L 199.604497 23.999384 " stroke="#004aad" stroke-width="48" stroke-opacity="1" stroke-miterlimit="4"/><g clip-path="url(#052769fee6)"><g clip-path="url(#f93fa912a6)"><path fill="#ffbd59" d="M 449.582031 223.875 L 524.8125 223.875 L 524.8125 299.105469 L 449.582031 299.105469 Z M 449.582031 223.875 " fill-opacity="1" fill-rule="nonzero"/></g></g><g clip-path="url(#e510b851fa)"><g clip-path="url(#a79ad365b3)"><path stroke-linecap="butt" transform="matrix(0.748928, 0, 0, 0.748928, 449.581416, 223.87362)" fill="none" stroke-linejoin="miter" d="M 50.218399 0.00184217 C 22.48607 0.00184217 0.000820905 22.481876 0.000820905 50.21942 C 0.000820905 77.951749 22.48607 100.436998 50.218399 100.436998 C 77.955944 100.436998 100.435977 77.951749 100.435977 50.21942 C 100.435977 22.481876 77.955944 0.00184217 50.218399 0.00184217 Z M 50.218399 0.00184217 " stroke="#ffbd59" stroke-width="200" stroke-opacity="1" stroke-miterlimit="4"/></g></g><g clip-path="url(#5e03521886)"><g clip-path="url(#0f1fa9525b)"><path fill="#7ed957" d="M 225.378906 0 L 299.953125 0 L 299.953125 74.574219 L 225.378906 74.574219 Z M 225.378906 0 " fill-opacity="1" fill-rule="nonzero"/></g></g><g clip-path="url(#0b8033fa61)"><g clip-path="url(#ebee34a56f)"><path stroke-linecap="butt" transform="matrix(0.748928, 0, 0, 0.748928, 225.377613, -0.0000199714)" fill="none" stroke-linejoin="miter" d="M 49.78118 0.0000266667 C 22.288777 0.0000266667 0.00172747 22.287076 0.00172747 49.779479 C 0.00172747 77.277097 22.288777 99.564147 49.78118 99.564147 C 77.273582 99.564147 99.560632 77.277097 99.560632 49.779479 C 99.560632 22.287076 77.273582 0.0000266667 49.78118 0.0000266667 Z M 49.78118 0.0000266667 " stroke="#7ed957" stroke-width="200" stroke-opacity="1" stroke-miterlimit="4"/></g></g><g clip-path="url(#f776b09b40)"><g clip-path="url(#28abb1cab3)"><path fill="#004aad" d="M 224.722656 448.136719 L 299.953125 448.136719 L 299.953125 523.367188 L 224.722656 523.367188 Z M 224.722656 448.136719 " fill-opacity="1" fill-rule="nonzero"/></g></g><g clip-path="url(#541aa50cc7)"><g clip-path="url(#f7f81254d2)"><path stroke-linecap="butt" transform="matrix(0.748928, 0, 0, 0.748928, 224.721611, 448.136263)" fill="none" stroke-linejoin="miter" d="M 50.218974 0.000609179 C 22.481429 0.000609179 0.00139559 22.485858 0.00139559 50.218187 C 0.00139559 77.955732 22.481429 100.435765 50.218974 100.435765 C 77.951302 100.435765 100.436552 77.955732 100.436552 50.218187 C 100.436552 22.485858 77.951302 0.000609179 50.218974 0.000609179 Z M 50.218974 0.000609179 " stroke="#004aad" stroke-width="200" stroke-opacity="1" stroke-miterlimit="4"/></g></g><g clip-path="url(#dc90f57b72)"><g clip-path="url(#376f628240)"><path stroke-linecap="butt" transform="matrix(0.748928, 0, 0, 0.748928, 112.842833, 111.70017)" fill="none" stroke-linejoin="miter" d="M 51.00117 -0.00127007 L 349.093714 -0.00127007 C 362.618244 -0.00127007 375.589902 5.370988 385.155651 14.936738 C 394.721401 24.502488 400.09366 37.474145 400.09366 50.998676 L 400.09366 349.096436 C 400.09366 362.620966 394.721401 375.592624 385.155651 385.158373 C 375.589902 394.718907 362.618244 400.091166 349.093714 400.091166 L 51.00117 400.091166 C 37.471423 400.091166 24.499766 394.718907 14.939232 385.158373 C 5.373482 375.592624 0.00122381 362.620966 0.00122381 349.096436 L 0.00122381 50.998676 C 0.00122381 37.474145 5.373482 24.502488 14.939232 14.936738 C 24.499766 5.370988 37.471423 -0.00127007 51.00117 -0.00127007 Z M 51.00117 -0.00127007 " stroke="#ffffff" stroke-width="64" stroke-opacity="1" stroke-miterlimit="4"/></g></g></svg>